<svg version="1.1" id="Layer_1" xmlns="http://www.w3.org/2000/svg" xmlns:xlink="http://www.w3.org/1999/xlink" x="0px" y="0px" viewBox="0 0 800 800" style="enable-background:new 0 0 800 800; width: 35px; height: 35px;" xml:space="preserve">
    <path style="fill: #fff;" d="M547,582.9L217.6,252.4c-4.7-4.7-7.3-11.1-7.3-17.7c0-6.6,2.7-13,7.3-17.7c4.7-4.7,11.1-7.3,17.7-7.3c6.6,0,13,2.7,17.7,7.3
        l329.5,330.5c4.7,4.7,7.3,11.1,7.3,17.7c0,6.6-2.7,13-7.3,17.7c-4.7,4.7-11.1,7.3-17.7,7.3C558.1,590.2,551.7,587.6,547,582.9z"></path>
    <path style="fill: #fff;" d="M584,252.6L251,579.6c-4.7,4.6-11.1,7.2-17.7,7.2c-6.6-0.1-13-2.8-17.6-7.5c-4.6-4.7-7.2-11.1-7.2-17.7
        c0.1-6.6,2.8-13,7.5-17.6l332.9-327c4.7-4.6,11.1-7.2,17.7-7.2c6.6,0.1,13,2.8,17.6,7.5c4.6,4.7,7.2,11.1,7.2,17.7
        C591.4,241.6,588.7,248,584,252.6z"></path>
</svg>